<svg width="463" height="362" viewBox="0 0 463 362" fill="none" xmlns="http://www.w3.org/2000/svg">
<rect x="10" y="10" width="443" height="296" rx="10" stroke="#05F2F2" stroke-width="20"/>
<rect x="48" y="46" width="367" height="224" rx="10" stroke="#05F2F2" stroke-width="20"/>
<line x1="145.81" y1="302.731" x2="116.81" y2="356.731" stroke="#05F2F2" stroke-width="20"/>
<line y1="-10" x2="61.2944" y2="-10" transform="matrix(0.473127 0.880994 0.880994 -0.473127 326 298)" stroke="#05F2F2" stroke-width="20"/>
<path d="M79.5 351.5H382.5" stroke="#05F2F2" stroke-width="20" stroke-linecap="round"/>
<rect x="49.5" y="78.5" width="259.82" height="149.35" stroke="#05F2F2"/>
<path fill-rule="evenodd" clip-rule="evenodd" d="M348.292 148.973C345.712 176.783 333.702 200.813 317.382 212.893C292.272 231.483 269.162 213.313 247.412 204.423C216.752 191.893 196.862 202.093 166.852 206.153C135.402 210.413 117.192 191.873 114.252 164.813C111.142 136.143 124.272 113.063 156.982 113.853C171.262 114.203 184.142 117.833 197.142 120.773C214.092 124.603 221.522 126.183 237.492 120.023C257.412 112.333 282.562 96.2131 307.682 95.7131C341.022 95.0431 350.972 120.153 348.292 148.973ZM298.992 92.6131C274.202 95.6631 247.482 114.133 227.632 119.223C214.622 122.563 197.732 116.693 185.522 114.113C172.092 111.273 155.872 108.083 141.532 111.433C128.542 114.473 119.182 122.813 114.622 133.563C104.732 156.913 110.622 191.203 133.192 204.443C158.112 219.053 190.152 202.173 217.442 202.203C250.882 202.233 265.822 224.193 292.782 224.643C342.562 225.483 366.142 142.093 344.372 108.443C335.252 94.3431 317.792 90.2931 298.992 92.6131Z" stroke="#05F2F2" stroke-width="15" stroke-miterlimit="10"/>
</svg>
